<?xml version="1.0" encoding="UTF-8"?> <svg xmlns="http://www.w3.org/2000/svg" width="392" height="727" viewBox="0 0 392 727" fill="none"> <path d="M260.42 204.489C256.582 236.64 229.226 261.599 196.065 261.599C162.903 261.599 135.515 236.607 131.71 204.423L56.0391 188.528L131.94 187.28C132.628 182.518 133.809 177.953 135.482 173.618L76.3426 126.655L143.649 158.544C143.649 158.544 143.649 158.511 143.682 158.478C146.798 154.176 150.472 150.268 154.572 146.853L122.329 79.0359L168.775 137.854C174.679 135.096 181.075 133.224 187.766 132.37L196.032 59.2656L204.298 132.37C210.989 133.224 217.385 135.096 223.289 137.854L269.735 79.0359L237.492 146.853C241.592 150.268 245.233 154.143 248.382 158.478L315.59 126.852L256.516 173.388C258.255 177.92 259.501 182.682 260.19 187.641L334.451 188.889L260.354 204.521L260.42 204.489Z" stroke="white" stroke-width="0.5" stroke-miterlimit="10"></path> <path d="M133.184 187.203L131.938 187.236" stroke="white" stroke-width="0.5" stroke-miterlimit="10"></path> <path d="M261.335 204.319C265.108 236.569 292.496 262.25 325.69 261.561C368.429 260.707 388.963 229.836 390.504 195.649C390.471 88.1601 303.451 1 196.062 1C88.6731 1 1.71875 87.9959 1.71875 195.484C3.19478 229.738 23.6295 260.674 66.4343 261.561C99.6285 262.25 127.017 236.569 130.789 204.319" stroke="white" stroke-width="0.5" stroke-miterlimit="10"></path> <path d="M389.159 172.07C399.655 232.925 371.02 286.226 322.803 288.557C296.431 289.838 275.931 277.26 261.597 254.698C249.363 274.173 229.682 291.415 196.16 291.415C162.638 291.415 142.925 274.173 130.723 254.698C116.389 277.26 95.8886 289.838 69.5169 288.557C21.3 286.226 -7.33494 232.892 3.16126 172.07" stroke="white" stroke-width="0.5" stroke-miterlimit="10"></path> <path d="M172.442 700.524C209.736 599.637 170.08 558.191 126.751 502.657C72.2361 432.771 75.3194 401.704 87.1932 360.521C98.3454 321.834 117.599 283.181 131.736 248.697M131.736 248.697C131.704 248.303 131.9 248.336 131.736 248.697ZM131.736 248.697C132.261 255.167 133.409 270.11 162.011 320.159C192.155 372.869 190.351 400.029 182.446 428.436C174.968 455.267 138.297 517.238 138.297 517.238C138.297 517.238 99.8542 574.973 129.834 637.666C146.726 672.97 196.124 726.6 196.124 726.6C196.124 726.6 245.522 672.97 262.414 637.666C292.394 574.973 253.951 517.238 253.951 517.238C253.951 517.238 217.28 455.267 209.802 428.436C201.897 400.029 200.093 372.902 230.237 320.159C258.839 270.11 259.954 255.167 260.512 248.697M260.512 248.697C260.348 248.336 260.544 248.303 260.512 248.697ZM260.512 248.697C274.649 283.181 293.903 321.867 305.055 360.521C316.929 401.704 320.045 432.738 265.497 502.657C222.168 558.191 182.512 599.637 219.806 700.524" stroke="white" stroke-width="0.5" stroke-miterlimit="10"></path> </svg> 