<?xml version="1.0" encoding="UTF-8"?> <svg xmlns="http://www.w3.org/2000/svg" width="245" height="265" viewBox="0 0 245 265" fill="none"><path d="M58.7084 1.78906C64.1769 1.78906 69.5422 2.38728 74.7356 3.58369C79.9289 4.7801 84.6064 6.6099 88.7335 9.03792C92.8607 11.5011 96.1968 14.6681 98.7075 18.5388C101.218 22.4096 102.456 27.0897 102.456 32.6143C102.456 38.1389 101.149 42.5726 98.5356 46.7601C95.9217 50.9475 92.448 54.5016 88.1144 57.4222C83.7809 60.3429 79.0691 62.5598 73.9445 64.0377C68.82 65.5156 63.7298 66.2898 58.7084 66.2898H30.7125L38.5885 58.2316V113.759L40.3426 115.554H49.9726V121.817H0.0683594V115.554H9.69841L11.4524 113.759V9.88244L9.69841 8.08782H0.0683594V1.82426H58.7084V1.78906ZM38.5885 68.0492L30.7125 59.991H51.7267C55.6819 59.991 59.3275 59.1465 62.5948 57.4926C65.8622 55.8387 68.5104 53.094 70.574 49.2585C72.6032 45.4229 73.635 40.3558 73.635 34.0218C73.635 28.638 72.5688 24.0283 70.4708 20.1575C68.3729 16.2868 65.6558 13.2957 62.3197 11.1844C58.9836 9.1083 55.4755 8.05263 51.7267 8.05263H40.3426L38.5885 9.84725V68.0492ZM63.2827 121.782V115.519H73.7726L75.5266 113.724L42.6125 63.9321H73.2567L108.613 115.519H119.997V121.782H63.2827Z" fill="#CB5D29"></path><path d="M60.4285 145.008C68.0294 145.008 75.3551 146.063 82.4744 148.14C89.5938 150.216 95.9909 153.559 101.631 158.063C107.306 162.602 111.743 168.479 115.01 175.692C118.278 182.906 119.894 191.598 119.894 201.767C119.894 211.937 118.174 220.734 114.735 228.546C111.296 236.357 106.687 243.008 100.909 248.427C95.131 253.846 88.7339 257.998 81.7522 260.778C74.736 263.593 67.6166 265.001 60.3941 265.001H0V258.737H9.63004L11.3841 256.943V153.066L9.63004 151.271H0V145.008H60.3941H60.4285ZM53.4123 258.737C60.2909 258.737 66.5849 256.661 72.2253 252.474C77.9002 248.286 82.44 242.199 85.8793 234.211C89.3186 226.223 91.0383 216.476 91.0383 205.004C91.0383 193.533 89.2842 184.489 85.7761 176.431C82.2681 168.373 77.6594 162.18 71.9502 157.816C66.2409 153.453 60.0502 151.271 53.3779 151.271H40.2398L38.4858 153.066V256.943L40.2398 258.737H53.3779H53.4123Z" fill="#CB5D29"></path><path d="M185.275 0C197.759 0 208.455 2.63914 217.294 7.88224C226.168 13.1253 232.978 20.4094 237.689 29.7344C242.401 39.0593 244.774 49.7215 244.774 61.7912C244.774 70.6235 243.33 78.8224 240.475 86.3176C237.621 93.848 233.597 100.393 228.403 105.918C223.21 111.477 216.95 115.806 209.659 118.902C202.368 121.999 194.217 123.547 185.24 123.547C172.755 123.547 162.059 120.908 153.22 115.665C144.347 110.422 137.537 103.138 132.825 93.8128C128.113 84.4878 125.74 73.8257 125.74 61.756C125.74 52.9236 127.185 44.7247 130.039 37.2295C132.894 29.7344 136.918 23.1541 142.111 17.6295C147.305 12.0697 153.564 7.74149 160.924 4.64489C168.284 1.5483 176.401 0 185.24 0H185.275ZM187.029 116.404C192.738 116.404 197.759 114.222 202.093 109.859C206.426 105.495 209.797 99.3374 212.239 91.42C214.681 83.4673 215.919 74.2127 215.919 63.5858C215.919 52.9588 214.474 43.7394 211.62 35.1886C208.765 26.6378 204.879 19.8464 199.995 14.7792C195.077 9.71204 189.608 7.17846 183.555 7.17846C177.949 7.17846 172.962 9.36016 168.594 13.7235C164.226 18.0869 160.821 24.2449 158.345 32.1624C155.903 40.115 154.665 49.4048 154.665 60.0318C154.665 70.6587 156.075 79.8781 158.964 88.4289C161.819 96.9798 165.705 103.771 170.589 108.838C175.507 113.905 180.975 116.439 187.029 116.439V116.404Z" fill="#CB5D29"></path><path d="M119.965 265.001V258.737H130.111L175.991 145.008H189.129L234.459 258.737H244.605V265.001H191.915V258.737H202.061L203.815 256.943L172.483 176.361H171.623L139.397 256.943L141.151 258.737H155.871V265.001H119.999H119.965ZM149.543 225.59V219.326H206.601V225.59H149.543Z" fill="#CB5D29"></path></svg> 